<?xml version="1.0" encoding="UTF-8"?>
<svg width="24px" height="24px" viewBox="0 0 24 24" version="1.1" xmlns="http://www.w3.org/2000/svg" xmlns:xlink="http://www.w3.org/1999/xlink">
    <!-- Generator: Sketch 47.1 (45422) - http://www.bohemiancoding.com/sketch -->
    <title>check circle 1</title>
    <desc>Created with Sketch.</desc>
    <defs></defs>
    <g id="Page-1" stroke="none" stroke-width="1" fill="none" fill-rule="evenodd">
        <g id="check-circle-1">
            <g id="Filled_Icons_1_" fill-rule="nonzero">
                <g id="Filled_Icons">
                    <g id="Group">
                        <path d="M23.623,0.217 C23.19,-0.127 22.562,-0.054 22.218,0.378 L9.415,16.5 L5.208,12.293 C4.817,11.902 4.184,11.902 3.794,12.293 C3.403,12.685 3.403,13.318 3.794,13.706 L8.794,18.706 C8.996,18.908 9.271,19.014 9.556,18.998 C9.84,18.982 10.108,18.843 10.284,18.621 L23.784,1.621 C24.127,1.19 24.056,0.561 23.623,0.217 Z" id="Shape" fill="#83A527"></path>
                        <path d="M18.551,11.019 C18.013,11.142 17.676,11.678 17.799,12.216 C17.933,12.801 18.001,13.402 18.001,13.999 C18.001,18.41 14.412,21.999 10.001,21.999 C5.59,21.999 2.001,18.41 2.001,13.999 C2.001,9.588 5.59,5.999 10.001,5.999 C11.248,5.999 12.445,6.28 13.556,6.831 C14.05,7.078 14.651,6.875 14.897,6.38 C15.143,5.886 14.941,5.285 14.446,5.04 C13.056,4.35 11.561,4 10.002,4 C4.488,4 0.002,8.486 0.002,14 C0.002,19.514 4.488,24 10.002,24 C15.516,24 20.002,19.514 20.002,14 C20.002,13.252 19.917,12.502 19.75,11.771 C19.626,11.233 19.091,10.894 18.551,11.019 Z" id="Shape" fill="#025495"></path>
                    </g>
                </g>
            </g>
            <g id="Invisible_Shape">
                <rect id="Rectangle-path" x="0" y="0" width="24" height="24"></rect>
            </g>
        </g>
    </g>
</svg>