<svg width="19" height="22" viewBox="0 0 19 22" fill="none" xmlns="http://www.w3.org/2000/svg">
<path d="M0 0H15C17.2091 0 19 1.79086 19 4V22H4C1.79086 22 0 20.2091 0 18V0Z" fill="#B2382B"/>
<path fill-rule="evenodd" clip-rule="evenodd" d="M12.9074 10.3519V7.7593C12.9074 5.97235 11.4536 4.51855 9.66668 4.51855C7.87973 4.51855 6.42594 5.97235 6.42594 7.7593V10.3519C5.71103 10.3519 5.12964 10.9326 5.12964 11.6482V16.1852C5.12964 16.9001 5.71103 17.4815 6.42594 17.4815H12.9074C13.6223 17.4815 14.2037 16.9001 14.2037 16.1852V11.6482C14.2037 10.9326 13.6223 10.3519 12.9074 10.3519ZM9.66669 14.8889C9.13003 14.8889 8.69447 14.4534 8.69447 13.9167C8.69447 13.38 9.12938 12.9445 9.66669 12.9445C10.204 12.9445 10.6389 13.38 10.6389 13.9167C10.6389 14.4534 10.2034 14.8889 9.66669 14.8889ZM7.72227 10.3519H11.6112V7.7593C11.6112 6.68726 10.7387 5.81485 9.66671 5.81485C8.59467 5.81485 7.72227 6.68726 7.72227 7.7593V10.3519Z" fill="white"/>
</svg>
