<svg version="1.0" xmlns="http://www.w3.org/2000/svg" viewBox="0 0 225 175"><path d="M1.6 1.6C.2 3 0 12.1 0 87.5s.2 84.5 1.6 85.9c1.4 1.4 10.5 1.6 85.5 1.6 82.6 0 83.9 0 85.9-2 1.9-1.9 2-3.3 2-49.8V75.5l24-24c16.3-16.3 24.4-25.1 25.1-27.3 1.9-5.7.4-9.4-6-15.6-5.3-5-6.4-5.6-10.1-5.6-2.3 0-5.1.5-6.3 1.1-1.2.6-7.7 6.6-14.4 13.2L175 29.5V17c0-9.7-.3-13.1-1.6-14.8L171.9 0H87.5C12.1 0 3 .2 1.6 1.6zM166 23.8v14.7L124.5 80 83 121.5l-4.7 14.2c-6.5 19.6-6.1 20 14.7 13.2l12.5-4.1 30.3-30.2L166 84.5V166H9V9h157v14.8zm46-9.2c2.2 2 4 4.4 4 5.2 0 .9-3 4.7-6.7 8.4l-6.7 6.8-5.4-5.2-5.3-5.3 7.3-6.7c4-3.7 7.6-6.7 8-6.8.5 0 2.6 1.6 4.8 3.6zm-20.7 22.2 4.7 4.7-47.8 47.8-47.7 47.7-7.2 2.4c-4 1.4-7.3 2.2-7.3 1.9 0-.4 1-3.8 2.3-7.7l2.2-7L138 79.3c26.1-26 47.7-47.3 48-47.3.3 0 2.7 2.1 5.3 4.8z"/><path d="M31.6 29.6c-1.9 1.8-2.1 4.5-.4 6.2 1.7 1.7 85.9 1.7 87.6 0 1.8-1.8 1.4-5.6-.7-6.8-1.3-.6-16.8-1-43.5-1-36.4 0-41.7.2-43 1.6zM132.6 29.6c-1.9 1.8-2 2.8-.6 5.5.8 1.4 2.1 1.9 5.3 1.9 4.8 0 6.7-1.3 6.7-4.7 0-4-8.2-6-11.4-2.7zM32.2 55.6c-2.4 1.7-2.9 4.3-1 6.2 1.7 1.7 81.9 1.7 83.6 0 1.8-1.8 1.4-5.6-.7-6.8-1.3-.6-15.9-1-40.8-1-33.5 0-39.2.2-41.1 1.6zM31.2 82.2c-1.5 1.5-1.5 4.1 0 5.6.9.9 8.5 1.2 27.9 1.2 29 0 29.8-.2 28.5-5.5L87 81H59.7c-19.9 0-27.6.3-28.5 1.2zM31.6 107.6c-.9.8-1.6 2.3-1.6 3.3 0 3.7 1.9 4.1 18.1 4.1 13 0 16-.3 17.3-1.6.9-.8 1.6-2.2 1.6-2.9 0-.7-.7-2.1-1.6-2.9-2.3-2.3-31.5-2.3-33.8 0z"/></svg>