<?xml version="1.0" encoding="utf-8"?>
<!-- Generator: Adobe Illustrator 26.0.1, SVG Export Plug-In . SVG Version: 6.00 Build 0)  -->
<svg version="1.1" id="pdf-generator-svg" xmlns="http://www.w3.org/2000/svg" xmlns:xlink="http://www.w3.org/1999/xlink" x="0px"
	 y="0px" viewBox="0 0 792 612" style="enable-background:new 0 0 792 612;" xml:space="preserve">
<g id="Background">
	<rect x="-6" y="60.7" style="fill:#F3F3F4;" width="803.8" height="558.7"/>
	<g>
		<g>
			<line style="fill:none;stroke:#414042;stroke-miterlimit:10;" x1="176.5" y1="106" x2="609.3" y2="106"/>
			<g>
				<polygon style="fill:#414042;" points="608.8,102.2 608.8,109.8 612.6,106 				"/>
			</g>
		</g>
	</g>
	<g>
		<g>
			<line style="fill:none;stroke:#414042;stroke-miterlimit:10;" x1="367.6" y1="238.2" x2="414.9" y2="238.2"/>
			<g>
				<polygon style="fill:#414042;" points="414.4,234.3 414.4,242 418.2,238.2 				"/>
			</g>
		</g>
	</g>
	<g>
		<g>
			<line style="fill:none;stroke:#414042;stroke-miterlimit:10;" x1="301.9" y1="230.8" x2="301.9" y2="308.2"/>
			<g>
				<polygon style="fill:#414042;" points="305.7,307.6 298.1,307.6 301.9,311.5 				"/>
			</g>
		</g>
	</g>
	<polygon style="fill:#FFFFFF;stroke:#414042;stroke-miterlimit:10;" points="373.5,234.6 373.5,208.2 230.5,208.3 230.5,235.5 
		234,239 230.5,242.5 230.5,268.5 298.4,268.5 301.9,272 305.4,268.5 373.5,268.5 373.5,241.5 377,238 	"/>
	<polygon id="Color1-Zone1" style="fill:#11283A;" points="613,29.7 609.5,26.1 609.5,-4.7 -5.9,-4.7 -5.9,60.7 609.5,60.7 
		609.5,33.2 	"/>
	<polyline style="fill:none;stroke:#414042;stroke-miterlimit:10;" points="591,330.5 586.3,335.6 524.2,335.6 524.2,332.1 	"/>
	<polyline style="fill:none;stroke:#414042;stroke-miterlimit:10;" points="558.8,440.3 586.5,440.3 590.8,436 590.8,238 	"/>
	<g>
		<g>
			<polyline style="fill:none;stroke:#414042;stroke-miterlimit:10;" points="35,559.1 28.2,559.1 28.2,251 32.4,246.7 83,246.7 			
				"/>
			<g>
				<polygon style="fill:#414042;" points="34.5,562.9 34.5,555.2 38.4,559.1 				"/>
			</g>
		</g>
	</g>
	<g>
		<g>
			<polyline style="fill:none;stroke:#414042;stroke-miterlimit:10;" points="371,443 395,443 395,339.8 399.3,335.6 415.7,335.6 
							"/>
			<g>
				<polygon style="fill:#414042;" points="415.2,331.8 415.2,339.5 419,335.6 				"/>
			</g>
		</g>
	</g>
	<g>
		<g>
			<polyline style="fill:none;stroke:#414042;stroke-miterlimit:10;" points="185,559 202.7,559 207,554.7 207,243.2 211.2,239 
				225.7,239 			"/>
			<g>
				<polygon style="fill:#414042;" points="225.2,235.2 225.2,242.8 229,239 				"/>
			</g>
		</g>
	</g>
	<g>
		<g>
			<line style="fill:none;stroke:#414042;stroke-miterlimit:10;" x1="685.2" y1="233.6" x2="685.2" y2="280.6"/>
			<g>
				<polygon style="fill:#414042;" points="689,280 681.3,280 685.2,283.9 				"/>
			</g>
		</g>
	</g>
	<g>
		<g>
			<line style="fill:none;stroke:#414042;stroke-miterlimit:10;" x1="685.2" y1="296.6" x2="685.2" y2="343.6"/>
			<g>
				<polygon style="fill:#414042;" points="689,343 681.3,343 685.2,346.9 				"/>
			</g>
		</g>
	</g>
	<g>
		<g>
			<line style="fill:none;stroke:#414042;stroke-miterlimit:10;" x1="685.2" y1="404.6" x2="685.2" y2="451.6"/>
			<g>
				<polygon style="fill:#414042;" points="689,451 681.3,451 685.2,454.9 				"/>
			</g>
		</g>
	</g>
	<g>
		<g>
			<line style="fill:none;stroke:#414042;stroke-miterlimit:10;" x1="685.2" y1="487.6" x2="685.2" y2="534.6"/>
			<g>
				<polygon style="fill:#414042;" points="689,534 681.3,534 685.2,537.9 				"/>
			</g>
		</g>
	</g>
	<polygon style="fill:#FFFFFF;stroke:#414042;stroke-miterlimit:10;" points="757.5,209.8 614,209.8 614,234.2 617.6,237.7 
		614,241.3 614,256 681.7,256 685.2,259.4 688.6,256 757.5,256 	"/>
	<polygon style="fill:#FFFFFF;stroke:#414042;stroke-miterlimit:10;" points="757.1,285.3 689.5,285.3 684.9,289.8 680.4,285.3 
		613.5,285.3 613.5,316.9 681.6,316.9 685.2,320.4 688.7,316.9 757.1,316.9 	"/>
	<polygon style="fill:#FFFFFF;stroke:#414042;stroke-miterlimit:10;" points="757.1,348.8 689.5,348.8 684.9,353.3 680.4,348.8 
		613.5,348.8 613.5,422.4 681.6,422.4 685.2,425.9 688.7,422.4 757.1,422.4 	"/>
	<polygon style="fill:#FFFFFF;stroke:#414042;stroke-miterlimit:10;" points="757.1,455.3 689.5,455.3 684.9,459.8 680.4,455.3 
		613.5,455.3 613.5,494.9 681.5,494.9 685.1,498.5 688.7,494.9 757.1,494.9 	"/>
	<g>
		<g>
			<line style="fill:none;stroke:#414042;stroke-miterlimit:10;" x1="562" y1="237.8" x2="609" y2="237.8"/>
			<g>
				<polygon style="fill:#414042;" points="608.5,233.9 608.5,241.6 612.3,237.8 				"/>
			</g>
		</g>
	</g>
	<polygon id="Color3-Zone1" style="fill:#6A7B34;" points="566.4,237.8 563,234.5 563,209.1 420.4,209.1 420.4,234.6 424,238.3 
		420.4,241.9 420.4,269.3 563,269.3 563,241.2 	"/>
	<polygon id="Color2-Zone2" style="fill:#B3392A;" points="613.5,93.7 613.6,102.3 617.3,106 613.5,109.7 613.5,143.3 757,143.3 
		757,93.7 	"/>
	<polyline style="fill:none;stroke:#414042;stroke-miterlimit:10;" points="78,246.7 89.7,246.7 89.7,206 	"/>
	<g>
		<g>
			<line style="fill:none;stroke:#414042;stroke-miterlimit:10;" x1="338.6" y1="548.2" x2="415.9" y2="548.2"/>
			<g>
				<polygon style="fill:#414042;" points="415.4,544.3 415.4,552 419.2,548.2 				"/>
			</g>
		</g>
	</g>
	<polygon style="fill:#FFFFFF;stroke:#414042;stroke-miterlimit:10;" points="376.9,548 373.4,544.5 373.4,515.5 305.6,515.5 
		302,519.1 298.4,515.5 230.8,515.5 230.8,578.8 373.4,578.7 373.4,551.6 	"/>
	<g>
		<g>
			<line style="fill:none;stroke:#414042;stroke-miterlimit:10;" x1="301.9" y1="462.8" x2="301.9" y2="510.2"/>
			<g>
				<polygon style="fill:#414042;" points="305.7,509.6 298.1,509.6 301.9,513.5 				"/>
			</g>
		</g>
	</g>
	<g>
		<g>
			<line style="fill:none;stroke:#414042;stroke-miterlimit:10;" x1="301.9" y1="326.8" x2="301.9" y2="404.2"/>
			<g>
				<polygon style="fill:#414042;" points="305.7,403.6 298.1,403.6 301.9,407.5 				"/>
			</g>
		</g>
	</g>
	<g>
		<g>
			<line style="fill:none;stroke:#414042;stroke-miterlimit:10;" x1="491.9" y1="559.5" x2="491.9" y2="482.1"/>
			<g>
				<polygon style="fill:#414042;" points="488.1,482.7 495.7,482.7 491.9,478.8 				"/>
			</g>
		</g>
	</g>
	<polygon id="Color3-Zone3" style="fill:#6A7B34;" points="563.4,436.8 563.4,403.1 420.4,403.1 420.4,477 488.5,477 492.1,473.4 
		495.6,477 563.4,477 563.4,443.5 566.7,440.2 	"/>
	<polygon style="fill:#FFFFFF;stroke:#414042;stroke-miterlimit:10;" points="495.4,496.2 491.9,492.8 488.4,496.2 420.7,496.3 
		420.7,544.6 424.2,548.1 420.7,551.6 420.7,578.3 563,578.3 563,496.2 	"/>
	<polygon style="fill:#FFFFFF;stroke:#414042;stroke-miterlimit:10;" points="373.5,439.5 373.5,407.7 305.4,407.7 302,411.1 
		298.6,407.7 230.5,407.7 230.5,467.4 298.2,467.4 301.9,471.1 305.6,467.4 373.5,467.4 373.5,446.4 377,442.9 	"/>
	<polygon style="fill:#FFFFFF;stroke:#414042;stroke-miterlimit:10;" points="305.5,313.2 302,316.8 298.5,313.2 230.8,313.3 
		230.8,397.3 298.3,397.3 301.9,401 305.6,397.3 373.5,397.3 373.5,313.2 	"/>
	<polygon id="Color3-Zone2" style="fill:#6A7B34;" points="563.7,332.2 563.7,278 420.4,278.1 420.4,331.6 424,335.3 420.4,338.9 
		420.4,394.3 563.7,394.3 563.7,338.8 567,335.5 	"/>
	<rect x="76" y="232" style="fill:#FFFFFF;stroke:#414042;stroke-miterlimit:10;" width="27.3" height="27.3"/>
	<line style="fill:none;stroke:#414042;stroke-miterlimit:10;" x1="175.7" y1="308.7" x2="209.7" y2="308.7"/>
	<g>
		<g>
			<line style="fill:none;stroke:#414042;stroke-miterlimit:10;" x1="111.9" y1="115.8" x2="111.9" y2="174.2"/>
			<g>
				<polygon style="fill:#414042;" points="115.7,173.6 108.1,173.6 111.9,177.5 				"/>
			</g>
		</g>
	</g>
	<g>
		<g>
			<line style="fill:none;stroke:#414042;stroke-miterlimit:10;" x1="131.9" y1="205.8" x2="131.9" y2="283.2"/>
			<g>
				<polygon style="fill:#414042;" points="135.7,282.6 128.1,282.6 131.9,286.5 				"/>
			</g>
		</g>
	</g>
	<polygon style="fill:#FFFFFF;stroke:#414042;stroke-miterlimit:10;" points="115.4,179.1 111.8,182.7 108.2,179.1 40,179.1 
		40,206.2 86.2,206.2 89.7,209.8 93.2,206.2 128.3,206.2 131.9,209.8 135.4,206.2 183,206.2 183,179.1 	"/>
	<g>
		<g>
			<line style="fill:none;stroke:#414042;stroke-miterlimit:10;" x1="111.6" y1="555.7" x2="111.6" y2="477.3"/>
			<g>
				<polygon style="fill:#414042;" points="107.8,477.8 115.5,477.8 111.6,474 				"/>
			</g>
		</g>
	</g>
	<g>
		<g>
			<line style="fill:none;stroke:#414042;stroke-miterlimit:10;" x1="111.7" y1="319" x2="111.7" y2="377.4"/>
			<g>
				<polygon style="fill:#414042;" points="115.5,376.9 107.9,376.9 111.7,380.7 				"/>
			</g>
		</g>
	</g>
	<polygon style="fill:#FFFFFF;stroke:#414042;stroke-miterlimit:10;" points="183,555.9 183,538.6 115.4,538.6 111.7,535 108,538.6 
		40,538.6 40.1,555.4 43.8,559.1 40,562.8 40,579.3 183,579.2 183,562.2 186.2,559 	"/>
	<polygon style="fill:#FFFFFF;stroke:#414042;stroke-miterlimit:10;" points="115.3,382.6 111.7,386.1 108.2,382.6 40.1,382.6 
		40.1,472.3 108.1,472.3 111.7,468.7 115.4,472.3 182.9,472.3 182.9,382.6 	"/>
	<polygon style="fill:#FFFFFF;stroke:#414042;stroke-miterlimit:10;" points="183,304.8 183,288 135.5,288 131.8,291.7 128.1,288 
		40,288 40,328.7 108.2,328.7 111.7,332.2 115.3,328.7 183,328.7 183,311.9 186.6,308.3 	"/>
	<polygon id="Color1-Zone2" style="fill:#11283A;" points="183,109.2 186.3,106 183,102.7 183,84.2 40,84.3 40,124.9 108.1,124.9 
		111.8,128.5 115.4,124.9 183,124.9 	"/>
	
		<text id="svg-title-text" transform="matrix(1 0 0 1 54.186 36.2655)" style="fill:#FFFFFF; font-family:'MuseoSansRounded-100'; font-size:18px;">2022 · CAN I MAKE A BACKDOOR ROTH IRA CONTRIBUTION?</text>
	<rect x="76" y="241.7" style="fill:none;" width="27.2" height="8.9"/>
	<text transform="matrix(1 0 0 1 83.0014 248.9675)" style="fill:#11283A; font-family:'OpenSans-Semibold'; font-size:9.5px;">No</text>
	<rect x="383" y="92" style="fill:#FFFFFF;stroke:#414042;stroke-miterlimit:10;" width="27.3" height="27.3"/>
	<rect x="383" y="101.7" style="fill:none;" width="27.2" height="8.9"/>
	<text transform="matrix(1 0 0 1 390.0016 108.9675)" style="fill:#11283A; font-family:'OpenSans-Semibold'; font-size:9.5px;">No</text>
	<rect x="98" y="341" style="fill:#FFFFFF;stroke:#414042;stroke-miterlimit:10;" width="27.3" height="27.3"/>
	<rect x="98" y="350.7" style="fill:none;" width="27.2" height="8.9"/>
	<text transform="matrix(1 0 0 1 105.0014 357.9675)" style="fill:#11283A; font-family:'OpenSans-Semibold'; font-size:9.5px;">No</text>
	<rect x="98" y="493" style="fill:#FFFFFF;stroke:#414042;stroke-miterlimit:10;" width="27.3" height="27.3"/>
	<rect x="98" y="502.7" style="fill:none;" width="27.2" height="8.9"/>
	<text transform="matrix(1 0 0 1 105.0014 509.9675)" style="fill:#11283A; font-family:'OpenSans-Semibold'; font-size:9.5px;">No</text>
	<rect x="118" y="232" style="fill:#FFFFFF;stroke:#414042;stroke-miterlimit:10;" width="27.3" height="27.3"/>
	<rect x="118" y="241.7" style="fill:none;" width="27.2" height="8.9"/>
	<text transform="matrix(1 0 0 1 123.7631 248.9675)" style="fill:#11283A; font-family:'OpenSans-Semibold'; font-size:9.5px;">Yes</text>
	<rect x="288" y="276" style="fill:#FFFFFF;stroke:#414042;stroke-miterlimit:10;" width="27.3" height="27.3"/>
	<rect x="288" y="285.7" style="fill:none;" width="27.2" height="8.9"/>
	<text transform="matrix(1 0 0 1 293.7631 292.9675)" style="fill:#11283A; font-family:'OpenSans-Semibold'; font-size:9.5px;">Yes</text>
	<rect x="192" y="294" style="fill:#FFFFFF;stroke:#414042;stroke-miterlimit:10;" width="27.3" height="27.3"/>
	<rect x="192" y="303.7" style="fill:none;" width="27.2" height="8.9"/>
	<text transform="matrix(1 0 0 1 197.7631 310.9675)" style="fill:#11283A; font-family:'OpenSans-Semibold'; font-size:9.5px;">Yes</text>
	<rect x="382" y="434" style="fill:#FFFFFF;stroke:#414042;stroke-miterlimit:10;" width="27.3" height="27.3"/>
	<rect x="382" y="443.7" style="fill:none;" width="27.2" height="8.9"/>
	<text transform="matrix(1 0 0 1 387.7634 450.9675)" style="fill:#11283A; font-family:'OpenSans-Semibold'; font-size:9.5px;">Yes</text>
	<rect x="288" y="476" style="fill:#FFFFFF;stroke:#414042;stroke-miterlimit:10;" width="27.3" height="27.3"/>
	<rect x="288" y="485.7" style="fill:none;" width="27.2" height="8.9"/>
	<text transform="matrix(1 0 0 1 295.0014 492.9675)" style="fill:#11283A; font-family:'OpenSans-Semibold'; font-size:9.5px;">No</text>
	<rect x="382" y="224" style="fill:#FFFFFF;stroke:#414042;stroke-miterlimit:10;" width="27.3" height="27.3"/>
	<rect x="382" y="233.7" style="fill:none;" width="27.2" height="8.9"/>
	<text transform="matrix(1 0 0 1 389.0016 240.9675)" style="fill:#11283A; font-family:'OpenSans-Semibold'; font-size:9.5px;">No</text>
	<rect x="98" y="136" style="fill:#FFFFFF;stroke:#414042;stroke-miterlimit:10;" width="27.3" height="27.3"/>
	<rect x="98" y="145.7" style="fill:none;" width="27.2" height="8.9"/>
	<text transform="matrix(1 0 0 1 103.7631 152.9675)" style="fill:#11283A; font-family:'OpenSans-Semibold'; font-size:9.5px;">Yes</text>
	<g>
		<rect x="50" y="95.1" style="fill:none;" width="124" height="24"/>
		<text transform="matrix(1 0 0 1 60.5547 102.3495)"><tspan x="0" y="0" style="fill:#FFFFFF; font-family:'OpenSans-Semibold'; font-size:9.5px;">Do you or your spouse </tspan><tspan x="2.7" y="11.4" style="fill:#FFFFFF; font-family:'OpenSans-Semibold'; font-size:9.5px;">have earned income?</tspan></text>
	</g>
	<g>
		<rect x="623" y="217.7" style="fill:none;" width="124.3" height="33.6"/>
		<text transform="matrix(1 0 0 1 635.1804 224.9348)"><tspan x="0" y="0" style="fill:#11283A; font-family:'OpenSans'; font-size:9.5px;">Here is the process for </tspan><tspan x="-4" y="11.4" style="fill:#11283A; font-family:'OpenSans'; font-size:9.5px;">making a Backdoor Roth </tspan><tspan x="20.7" y="22.8" style="fill:#11283A; font-family:'OpenSans'; font-size:9.5px;">Contribution:</tspan></text>
	</g>
	<rect x="56.2" y="189" style="fill:none;" width="111.3" height="13.6"/>
	<text transform="matrix(1 0 0 1 73.8414 196.1891)" style="fill:#11283A; font-family:'OpenSans'; font-size:9.5px;">Are you married?</text>
	<rect x="56.5" y="298.9" style="fill:none;" width="111.3" height="24"/>
	<text transform="matrix(1 0 0 1 62.5254 306.1376)"><tspan x="0" y="0" style="fill:#11283A; font-family:'OpenSans'; font-size:9.5px;">Is your MAGI $214,000 </tspan><tspan x="13.4" y="11.4" style="fill:#11283A; font-family:'OpenSans'; font-size:9.5px;">or greater (MFJ)?</tspan></text>
	<g>
		<rect x="625.3" y="102.6" style="fill:none;" width="125" height="34.2"/>
		<text transform="matrix(1 0 0 1 636.3569 109.7943)"><tspan x="0" y="0" style="fill:#FFFFFF; font-family:'OpenSans'; font-size:9.5px;">Sorry, you can&apos;t make a </tspan><tspan x="-10.6" y="11.4" style="fill:#FFFFFF; font-family:'OpenSans'; font-size:9.5px;">Backdoor Roth Contribution </tspan><tspan x="-1.3" y="22.8" style="fill:#FFFFFF; font-family:'OpenSans'; font-size:9.5px;">without earned income.</tspan></text>
	</g>
	<rect x="56.5" y="550.5" style="fill:none;" width="111.3" height="22.5"/>
	<text transform="matrix(1 0 0 1 62.4911 557.7232)"><tspan x="0" y="0" style="fill:#11283A; font-family:'OpenSans'; font-size:9.5px;">Is your MAGI $144,000 </tspan><tspan x="8.2" y="11.4" style="fill:#11283A; font-family:'OpenSans'; font-size:9.5px;">or greater (Single)?</tspan></text>
	<rect x="19.2" y="594.7" style="fill:none;" width="751.8" height="24"/>
	
		<text id="copyright-replace" transform="matrix(1 0 0 1 19.2311 601.5402)" style="fill:#11283A; font-family:'OpenSans-Semibold'; font-size:9px;">© fpPathfinder.com. Not to be reproduced, redistributed, or retransmitted in whole or in part. All rights reserved. Used with permission. Updated 11/15/2021.</text>
	<rect x="238.3" y="217.1" style="fill:none;" width="127.5" height="45.8"/>
	<text transform="matrix(1 0 0 1 249.4178 224.3451)"><tspan x="0" y="0" style="fill:#11283A; font-family:'OpenSans'; font-size:9.5px;">Do you have an existing </tspan><tspan x="-5.1" y="11.4" style="fill:#11283A; font-family:'OpenSans'; font-size:9.5px;">pre-tax traditional, SEP, or </tspan><tspan x="-3" y="22.8" style="fill:#11283A; font-family:'OpenSans'; font-size:9.5px;">SIMPLE IRA (found on IRS </tspan><tspan x="25.4" y="34.2" style="fill:#11283A; font-family:'OpenSans'; font-size:9.5px;">Form 8606)?</tspan></text>
	<rect x="238.3" y="323.1" style="fill:none;" width="127.5" height="65.7"/>
	<text transform="matrix(1 0 0 1 253.1863 330.3461)"><tspan x="0" y="0" style="fill:#11283A; font-family:'OpenSans'; font-size:9.5px;">You may be subject to </tspan><tspan x="-6.3" y="11.4" style="fill:#11283A; font-family:'OpenSans'; font-size:9.5px;">aggregation and pro rata </tspan><tspan x="7.1" y="22.8" style="fill:#11283A; font-family:'OpenSans'; font-size:9.5px;">rules if you make a </tspan><tspan x="-14.3" y="34.2" style="fill:#11283A; font-family:'OpenSans'; font-size:9.5px;">Backdoor Roth Contribution, </tspan><tspan x="-10.7" y="45.6" style="fill:#11283A; font-family:'OpenSans'; font-size:9.5px;">which will incur income tax </tspan><tspan x="10.5" y="57" style="fill:#11283A; font-family:'OpenSans'; font-size:9.5px;">upon conversion.</tspan></text>
	<g>
		<rect x="232.5" y="526.3" style="fill:none;" width="139.2" height="45.5"/>
		<text transform="matrix(1 0 0 1 239.8946 533.5117)"><tspan x="0" y="0" style="fill:#11283A; font-family:'OpenSans'; font-size:9.5px;">Determine how much of the </tspan><tspan x="6" y="11.4" style="fill:#11283A; font-family:'OpenSans'; font-size:9.5px;">contribution will be taxed </tspan><tspan x="-1.4" y="22.8" style="fill:#11283A; font-family:'OpenSans'; font-size:9.5px;">when converted by following </tspan><tspan x="21.2" y="34.2" style="fill:#11283A; font-family:'OpenSans'; font-size:9.5px;">this rule of thumb:</tspan></text>
	</g>
	<g>
		<rect x="428" y="218" style="fill:none;" width="129.1" height="42.3"/>
		<text transform="matrix(1 0 0 1 439.3095 225.2336)"><tspan x="0" y="0" style="fill:#FFFFFF; font-family:'OpenSans'; font-size:9.5px;">You can make a tax-free </tspan><tspan x="-8.7" y="11.4" style="fill:#FFFFFF; font-family:'OpenSans'; font-size:9.5px;">Backdoor Roth Contribution </tspan><tspan x="1.5" y="22.8" style="fill:#FFFFFF; font-family:'OpenSans'; font-size:9.5px;">since you don’t have an </tspan><tspan x="9.4" y="34.2" style="fill:#FFFFFF; font-family:'OpenSans'; font-size:9.5px;">existing pre-tax IRA.</tspan></text>
	</g>
	<g>
		<rect x="426.8" y="286" style="fill:none;" width="130.6" height="99.8"/>
		<text transform="matrix(1 0 0 1 438.8085 293.2336)"><tspan x="0" y="0" style="fill:#FFFFFF; font-family:'OpenSans'; font-size:9.5px;">You can make a tax-free </tspan><tspan x="-8.7" y="11.4" style="fill:#FFFFFF; font-family:'OpenSans'; font-size:9.5px;">Backdoor Roth Contribution </tspan><tspan x="-9.3" y="22.8" style="fill:#FFFFFF; font-family:'OpenSans'; font-size:9.5px;">by first “rolling in” the assets </tspan><tspan x="-1.4" y="34.2" style="fill:#FFFFFF; font-family:'OpenSans'; font-size:9.5px;">from your existing IRA to </tspan><tspan x="-4.1" y="45.6" style="fill:#FFFFFF; font-family:'OpenSans'; font-size:9.5px;">your employer retirement </tspan><tspan x="-1.1" y="57" style="fill:#FFFFFF; font-family:'OpenSans'; font-size:9.5px;">account to remove them </tspan><tspan x="-7" y="68.4" style="fill:#FFFFFF; font-family:'OpenSans'; font-size:9.5px;">from the aggregation rules, </tspan><tspan x="-6.9" y="79.8" style="fill:#FFFFFF; font-family:'OpenSans'; font-size:9.5px;">and avoid income tax upon </tspan><tspan x="27.7" y="91.2" style="fill:#FFFFFF; font-family:'OpenSans'; font-size:9.5px;">conversion.</tspan></text>
	</g>
	<g>
		<rect x="428" y="413.6" style="fill:none;" width="125.7" height="55.6"/>
		<text transform="matrix(1 0 0 1 433.7519 420.846)"><tspan x="0" y="0" style="fill:#FFFFFF; font-family:'OpenSans'; font-size:9.5px;">You can make a Backdoor </tspan><tspan x="4.8" y="11.4" style="fill:#FFFFFF; font-family:'OpenSans'; font-size:9.5px;">Roth Contribution but a </tspan><tspan x="5.6" y="22.8" style="fill:#FFFFFF; font-family:'OpenSans'; font-size:9.5px;">portion will be taxed as </tspan><tspan x="7.9" y="34.2" style="fill:#FFFFFF; font-family:'OpenSans'; font-size:9.5px;">ordinary income upon </tspan><tspan x="31.6" y="45.6" style="fill:#FFFFFF; font-family:'OpenSans'; font-size:9.5px;">conversion.</tspan></text>
	</g>
	<rect x="426" y="505.1" style="fill:none;" width="132.4" height="67.9"/>
	<text transform="matrix(1 0 0 1 430.2621 512.3461)"><tspan x="0" y="0" style="fill:#11283A; font-family:'OpenSans'; font-size:9.5px;">Divide after-tax IRA value by </tspan><tspan x="9.9" y="11.4" style="fill:#11283A; font-family:'OpenSans'; font-size:9.5px;">the total value of all IRA </tspan><tspan x="5.7" y="22.8" style="fill:#11283A; font-family:'OpenSans'; font-size:9.5px;">assets based on year-end </tspan><tspan x="-3.3" y="34.2" style="fill:#11283A; font-family:'OpenSans'; font-size:9.5px;">FMV. Multiply this percentage </tspan><tspan x="4" y="45.6" style="fill:#11283A; font-family:'OpenSans'; font-size:9.5px;">by the contribution to find </tspan><tspan x="17.4" y="57" style="fill:#11283A; font-family:'OpenSans'; font-size:9.5px;">the tax-free portion.</tspan></text>
	<rect x="241" y="415.8" style="fill:none;" width="121.6" height="44.7"/>
	<text transform="matrix(1 0 0 1 245.1541 423.0374)"><tspan x="0" y="0" style="fill:#11283A; font-family:'OpenSans'; font-size:9.5px;">Do you have an employer </tspan><tspan x="-2.8" y="11.4" style="fill:#11283A; font-family:'OpenSans'; font-size:9.5px;">retirement account (e.g., in </tspan><tspan x="-1" y="22.8" style="fill:#11283A; font-family:'OpenSans'; font-size:9.5px;">a 401(k) plan) that accepts </tspan><tspan x="36.5" y="34.2" style="fill:#11283A; font-family:'OpenSans'; font-size:9.5px;">“roll ins”?</tspan></text>
	<g>
		<rect x="52" y="394.4" style="fill:none;" width="119.9" height="67.1"/>
		<text transform="matrix(1 0 0 1 57.4305 401.6605)"><tspan x="0" y="0" style="fill:#11283A; font-family:'OpenSans'; font-size:9.5px;">You’re below the income </tspan><tspan x="-1.1" y="11.4" style="fill:#11283A; font-family:'OpenSans'; font-size:9.5px;">limits and may be able to </tspan><tspan x="0.2" y="22.8" style="fill:#11283A; font-family:'OpenSans'; font-size:9.5px;">make a contribution to a </tspan><tspan x="-3.8" y="34.2" style="fill:#11283A; font-family:'OpenSans'; font-size:9.5px;">Roth IRA directly. See “Can </tspan><tspan x="1.9" y="45.6" style="fill:#11283A; font-family:'OpenSans'; font-size:9.5px;">I Contribute To My Roth </tspan><tspan x="20.2" y="57" style="fill:#11283A; font-family:'OpenSans'; font-size:9.5px;">IRA?” flowchart.</tspan></text>
	</g>
	<rect x="629.1" y="297.7" style="fill:none;" width="112.7" height="11.8"/>
	<text transform="matrix(1 0 0 1 635.466 304.9525)" style="fill:#11283A; font-family:'OpenSans'; font-size:9.5px;">Open a traditional IRA.</text>
	<rect x="620.1" y="359.7" style="fill:none;" width="130.2" height="57.3"/>
	<text transform="matrix(1 0 0 1 625.9308 366.9525)"><tspan x="0" y="0" style="fill:#11283A; font-family:'OpenSans'; font-size:9.5px;">Make a non-deductible IRA </tspan><tspan x="3.1" y="11.4" style="fill:#11283A; font-family:'OpenSans'; font-size:9.5px;">contribution up to $6,000 </tspan><tspan x="-5.2" y="22.8" style="fill:#11283A; font-family:'OpenSans'; font-size:9.5px;">($7,000 if age 50 or over), not </tspan><tspan x="9.5" y="34.2" style="fill:#11283A; font-family:'OpenSans'; font-size:9.5px;">to exceed your earned </tspan><tspan x="14.6" y="45.6" style="fill:#11283A; font-family:'OpenSans'; font-size:9.5px;">income for the year.</tspan></text>
	<rect x="619.7" y="466.7" style="fill:none;" width="132.6" height="32.9"/>
	<text transform="matrix(1 0 0 1 647.0129 473.9525)"><tspan x="0" y="0" style="fill:#11283A; font-family:'OpenSans'; font-size:9.5px;">Later, convert the </tspan><tspan x="-23.5" y="11.4" style="fill:#11283A; font-family:'OpenSans'; font-size:9.5px;">contribution into a Roth IRA.</tspan></text>
	<polygon style="fill:#FFFFFF;stroke:#414042;stroke-miterlimit:10;" points="757.1,539.3 689.5,539.3 684.9,543.8 680.4,539.3 
		613.5,539.3 613.5,578.9 757.1,578.9 	"/>
	<rect x="620.1" y="551.7" style="fill:none;" width="130.2" height="23.6"/>
	<text transform="matrix(1 0 0 1 636.0695 558.9525)"><tspan x="0" y="0" style="fill:#11283A; font-family:'OpenSans'; font-size:9.5px;">Be mindful of the step </tspan><tspan x="3.2" y="11.4" style="fill:#11283A; font-family:'OpenSans'; font-size:9.5px;">transaction doctrine.</tspan></text>
</g>
<g id="Start_Here">
	<rect x="63.7" y="68.7" style="fill:none;" width="81.3" height="12.4"/>
	
		<text id="Color4-Zone1" transform="matrix(1 0 0 1 63.7062 76.477)" style="fill:#D9B149; font-family:'MuseoSansRounded-700'; font-size:11px;">Start Here</text>
	<ellipse style="fill:#CCCCCB;" cx="48.6" cy="82" rx="6.9" ry="1.5"/>
	<path id="Color4-Zone2" style="fill:#D9B149;" d="M48.5,48.2c-6.2,0-11.3,5-11.3,11.2s11.3,22.4,11.3,22.4s11.3-16.2,11.3-22.4
		S54.7,48.2,48.5,48.2z"/>
	<ellipse style="fill:#FFFFFF;" cx="48.5" cy="59.4" rx="6.6" ry="6.6"/>
</g>
</svg>
