<?xml version="1.0" encoding="UTF-8"?>
<svg width="516px" height="162px" viewBox="0 0 516 162" version="1.1" xmlns="http://www.w3.org/2000/svg" xmlns:xlink="http://www.w3.org/1999/xlink">
    <!-- Generator: Sketch 49.3 (51167) - http://www.bohemiancoding.com/sketch -->
    <title>logo</title>
    <desc>Created with Sketch.</desc>
    <defs>
        <polygon id="path-1" points="0 0.528 60.751 0.528 60.751 68.94 0 68.94"></polygon>
        <polygon id="path-3" points="0.188 0.905 78 0.905 78 53.867 0.188 53.867"></polygon>
    </defs>
    <g id="Symbols" stroke="none" stroke-width="1" fill="none" fill-rule="evenodd">
        <g id="Logo">
            <g id="logo">
                <g id="Group-4" transform="translate(0.000000, 93.000000)">
                    <mask id="mask-2" fill="white">
                        <use xlink:href="#path-1"></use>
                    </mask>
                    <g id="Clip-2"></g>
                    <path d="M4.766,19.14 L1.286,19.14 C0.454,19.14 0,18.686 0,17.853 L0,17.552 C0,16.72 0.454,16.266 1.286,16.266 L4.766,16.266 L4.766,14.525 C4.766,2.57 12.937,0.528 16.721,0.528 L17.402,0.528 C18.234,0.528 18.687,0.982 18.687,1.812 L18.687,2.269 C18.687,3.177 18.159,3.478 17.099,3.555 C13.468,3.706 7.943,4.69 7.943,14.448 L7.943,16.266 L17.023,16.266 C17.855,16.266 18.309,16.72 18.309,17.552 L18.309,17.853 C18.309,18.686 17.855,19.14 17.023,19.14 L7.943,19.14 L7.943,52.583 C7.943,53.414 7.49,53.867 6.658,53.867 L6.052,53.867 C5.22,53.867 4.766,53.414 4.766,52.583 L4.766,19.14" id="Fill-1" fill="#15222C" mask="url(#mask-2)"></path>
                    <path d="M27.688,17.323 C27.688,16.491 28.143,16.038 28.974,16.038 L29.581,16.038 C30.413,16.038 30.866,16.491 30.866,17.323 L30.866,20.578 C30.866,22.317 30.64,23.604 30.64,23.604 L30.79,23.604 C30.79,23.604 33.893,15.131 44.409,15.131 C54.547,15.131 60.751,23.224 60.751,34.953 C60.751,46.982 53.715,54.775 43.956,54.775 C34.121,54.775 30.715,46.226 30.715,46.226 L30.563,46.226 C30.563,46.226 30.866,47.589 30.866,49.555 L30.866,67.713 C30.866,68.547 30.413,69 29.581,69 L28.974,69 C28.143,69 27.688,68.547 27.688,67.713 L27.688,17.323 Z M43.956,51.675 C51.37,51.675 57.421,45.545 57.421,34.953 C57.421,24.738 51.976,18.232 44.258,18.232 C37.298,18.232 30.79,23.149 30.79,35.028 C30.79,43.427 35.481,51.675 43.956,51.675 Z" id="Fill-3" fill="#15222C" mask="url(#mask-2)"></path>
                </g>
                <path d="M73.763,95.192 C73.763,94.359 74.216,93.905 75.048,93.905 L91.165,93.905 C100.396,93.905 107.279,99.731 107.279,109.34 C107.279,118.949 100.396,124.926 91.165,124.926 L77.016,124.926 L77.016,145.582 C77.016,146.414 76.561,146.867 75.73,146.867 L75.048,146.867 C74.216,146.867 73.763,146.414 73.763,145.582 L73.763,95.192 Z M91.012,121.9 C98.729,121.9 103.874,117.285 103.874,109.34 C103.874,101.396 98.729,96.931 91.012,96.931 L77.016,96.931 L77.016,121.9 L91.012,121.9 Z" id="Fill-5" fill="#15222C"></path>
                <path d="M129.37,94.965 C129.596,94.208 130.126,93.905 130.808,93.905 L132.169,93.905 C132.848,93.905 133.379,94.208 133.607,94.965 L152.522,145.354 C152.823,146.262 152.445,146.867 151.462,146.867 L150.63,146.867 C149.949,146.867 149.418,146.566 149.192,145.885 L142.685,128.558 L120.214,128.558 L113.784,145.807 C113.555,146.566 113.026,146.867 112.346,146.867 L111.514,146.867 C110.53,146.867 110.151,146.262 110.455,145.354 L129.37,94.965 Z M141.55,125.531 L133.53,104.043 C132.698,101.775 131.563,97.69 131.563,97.69 L131.412,97.69 C131.412,97.69 130.277,101.775 129.445,104.043 L121.349,125.531 L141.55,125.531 Z" id="Fill-6" fill="#15222C"></path>
                <path d="M171.356,96.932 L152.895,96.932 C152.063,96.932 151.609,96.478 151.609,95.646 L151.609,95.193 C151.609,94.359 152.063,93.905 152.895,93.905 L193.07,93.905 C193.904,93.905 194.357,94.359 194.357,95.193 L194.357,95.646 C194.357,96.478 193.904,96.932 193.07,96.932 L174.61,96.932 L174.61,145.582 C174.61,146.414 174.155,146.868 173.323,146.868 L172.644,146.868 C171.81,146.868 171.356,146.414 171.356,145.582 L171.356,96.932" id="Fill-7" fill="#15222C"></path>
                <path d="M204.645,95.192 C204.645,94.359 205.098,93.905 205.93,93.905 L206.611,93.905 C207.443,93.905 207.897,94.359 207.897,95.192 L207.897,118.799 L241.492,118.799 L241.492,95.192 C241.492,94.359 241.944,93.905 242.776,93.905 L243.456,93.905 C244.291,93.905 244.745,94.359 244.745,95.192 L244.745,145.582 C244.745,146.414 244.291,146.867 243.456,146.867 L242.776,146.867 C241.944,146.867 241.492,146.414 241.492,145.582 L241.492,121.825 L207.897,121.825 L207.897,145.582 C207.897,146.414 207.443,146.867 206.611,146.867 L205.93,146.867 C205.098,146.867 204.645,146.414 204.645,145.582 L204.645,95.192" id="Fill-8" fill="#15222C"></path>
                <path d="M262.519,95.192 C262.519,94.359 262.974,93.905 263.806,93.905 L287.941,93.905 C288.772,93.905 289.225,94.359 289.225,95.192 L289.225,95.646 C289.225,96.478 288.772,96.931 287.941,96.931 L265.773,96.931 L265.773,119.024 L284.764,119.024 C285.594,119.024 286.049,119.48 286.049,120.312 L286.049,120.765 C286.049,121.597 285.594,122.052 284.764,122.052 L265.773,122.052 L265.773,145.582 C265.773,146.414 265.317,146.867 264.485,146.867 L263.806,146.867 C262.974,146.867 262.519,146.414 262.519,145.582 L262.519,95.192" id="Fill-9" fill="#15222C"></path>
                <path d="M301.558,95.192 C301.558,94.359 302.01,93.905 302.841,93.905 L303.524,93.905 C304.356,93.905 304.809,94.359 304.809,95.192 L304.809,145.582 C304.809,146.414 304.356,146.867 303.524,146.867 L302.841,146.867 C302.01,146.867 301.558,146.414 301.558,145.582 L301.558,95.192" id="Fill-10" fill="#15222C"></path>
                <path d="M322.59,95.192 C322.59,94.359 323.041,93.905 323.873,93.905 L324.63,93.905 C325.313,93.905 325.766,94.133 326.221,94.739 L355.803,135.443 C357.542,137.864 360.117,142.101 360.117,142.101 L360.27,142.101 C360.27,142.101 359.89,138.091 359.89,135.443 L359.89,95.192 C359.89,94.359 360.345,93.905 361.177,93.905 L361.856,93.905 C362.688,93.905 363.144,94.359 363.144,95.192 L363.144,145.582 C363.144,146.414 362.688,146.867 361.856,146.867 L361.1,146.867 C360.416,146.867 359.965,146.639 359.509,146.035 L329.927,105.331 C328.188,102.91 325.612,98.673 325.612,98.673 L325.466,98.673 C325.466,98.673 325.841,102.682 325.841,105.331 L325.841,145.582 C325.841,146.414 325.389,146.867 324.557,146.867 L323.873,146.867 C323.041,146.867 322.59,146.414 322.59,145.582 L322.59,95.192" id="Fill-11" fill="#15222C"></path>
                <path d="M380.919,95.192 C380.919,94.359 381.37,93.905 382.202,93.905 L397.561,93.905 C413.3,93.905 423.967,103.59 423.967,120.387 C423.967,137.26 413.3,146.867 397.561,146.867 L382.202,146.867 C381.37,146.867 380.919,146.414 380.919,145.582 L380.919,95.192 Z M397.033,143.841 C411.104,143.841 420.563,135.595 420.563,120.387 C420.563,105.256 411.104,96.931 397.033,96.931 L384.17,96.931 L384.17,143.841 L397.033,143.841 Z" id="Fill-12" fill="#15222C"></path>
                <g id="Group-16" transform="translate(438.000000, 93.000000)">
                    <mask id="mask-4" fill="white">
                        <use xlink:href="#path-3"></use>
                    </mask>
                    <g id="Clip-14"></g>
                    <path d="M0.188,2.192 C0.188,1.359 0.643,0.905 1.475,0.905 L27.878,0.905 C28.713,0.905 29.165,1.359 29.165,2.192 L29.165,2.646 C29.165,3.478 28.713,3.931 27.878,3.931 L3.441,3.931 L3.441,25.646 L23.263,25.646 C24.094,25.646 24.55,26.099 24.55,26.933 L24.55,27.387 C24.55,28.22 24.094,28.673 23.263,28.673 L3.441,28.673 L3.441,50.841 L29.315,50.841 C30.147,50.841 30.603,51.295 30.603,52.128 L30.603,52.582 C30.603,53.414 30.147,53.867 29.315,53.867 L1.475,53.867 C0.643,53.867 0.188,53.414 0.188,52.582 L0.188,2.192" id="Fill-13" fill="#15222C" mask="url(#mask-4)"></path>
                    <path d="M43.765,2.192 C43.765,1.359 44.216,0.905 45.048,0.905 L59.274,0.905 C64.189,0.905 66.688,1.436 68.809,2.494 C73.194,4.69 76.146,9.151 76.146,15.205 C76.146,22.771 71.758,28.447 65.554,29.807 L65.554,29.959 C65.554,29.959 66.084,30.564 66.764,31.85 L77.808,52.354 C78.265,53.262 77.885,53.867 76.9,53.867 L75.841,53.867 C75.086,53.867 74.632,53.566 74.329,52.96 L62.223,30.412 L47.016,30.412 L47.016,52.582 C47.016,53.414 46.563,53.867 45.731,53.867 L45.048,53.867 C44.216,53.867 43.765,53.414 43.765,52.582 L43.765,2.192 Z M61.391,27.387 C68.353,27.387 72.742,22.393 72.742,15.205 C72.742,10.516 70.396,6.731 66.536,4.992 C65.024,4.31 63.357,3.931 59.124,3.931 L47.016,3.931 L47.016,27.387 L61.391,27.387 Z" id="Fill-15" fill="#15222C" mask="url(#mask-4)"></path>
                </g>
                <polyline id="Fill-17" fill="#15222C" points="153.064 0.404 153.071 45.276 153.052 45.276 153.052 45.365 199.82 45.365 199.82 26.163 203.222 22.764 199.815 19.357 199.815 0.404 153.064 0.404"></polyline>
                <polyline id="Fill-18" fill="#647335" points="205.395 0.404 205.395 18.557 209.603 22.764 205.4 26.965 205.4 45.365 252.15 45.365 252.15 26.163 255.553 22.764 252.146 19.357 252.146 0.404 205.395 0.404"></polyline>
                <polyline id="Fill-19" fill="#A1372F" points="257.725 0.404 257.725 18.557 261.933 22.764 257.732 26.965 257.732 45.365 304.481 45.365 304.481 26.163 307.883 22.764 304.478 19.357 304.478 0.404 257.725 0.404"></polyline>
                <polyline id="Fill-20" fill="#CFAA4C" points="310.057 0.404 310.057 18.557 314.265 22.764 310.063 26.965 310.063 45.365 358.765 45.365 358.765 26.907 362.948 22.723 358.765 18.538 358.765 0.404 310.057 0.404"></polyline>
            </g>
        </g>
    </g>
</svg>